<svg version="1.1" viewBox="0.0 0.0 960.0 960.0" fill="none" stroke="none" stroke-linecap="square" stroke-miterlimit="10" xmlns:xlink="http://www.w3.org/1999/xlink" xmlns="http://www.w3.org/2000/svg"><clipPath id="p.0"><path d="m0 0l960.0 0l0 960.0l-960.0 0l0 -960.0z" clip-rule="nonzero"/></clipPath><g clip-path="url(#p.0)"><path fill="#000000" fill-opacity="0.0" d="m0 0l960.0 0l0 960.0l-960.0 0z" fill-rule="evenodd"/><defs><radialGradient id="p.1" gradientUnits="userSpaceOnUse" gradientTransform="matrix(25.669718039211077 0.0 0.0 25.669718039211077 0.0 0.0)" spreadMethod="pad" cx="18.69907566833376" cy="18.69907566833376" fx="18.69907566833376" fy="18.69907566833376" r="25.66971778869629"><stop offset="0.0" stop-color="#000000"/><stop offset="1.0" stop-color="#434343"/></radialGradient></defs><path fill="url(#p.1)" d="m14.062992 480.0l0 0c0 -257.3299 208.6071 -465.937 465.937 -465.937l0 0c123.57416 0 242.0871 49.08965 329.46722 136.46979c87.38013 87.38014 136.46979 205.89304 136.46979 329.46722l0 0c0 257.3299 -208.60712 465.937 -465.937 465.937l0 0c-257.3299 0 -465.937 -208.60712 -465.937 -465.937z" fill-rule="evenodd"/><path stroke="#d9d9d9" stroke-width="24.0" stroke-linejoin="round" stroke-linecap="butt" d="m14.062992 480.0l0 0c0 -257.3299 208.6071 -465.937 465.937 -465.937l0 0c123.57416 0 242.0871 49.08965 329.46722 136.46979c87.38013 87.38014 136.46979 205.89304 136.46979 329.46722l0 0c0 257.3299 -208.60712 465.937 -465.937 465.937l0 0c-257.3299 0 -465.937 -208.60712 -465.937 -465.937z" fill-rule="evenodd"/><path fill="#d9d9d9" d="m451.21985 643.8819q-21.234375 0 -37.171875 -6.640625q-15.9375 -6.640625 -27.015625 -16.375q-11.0625 -9.734375 -17.703125 -18.8125q-6.640625 -9.078125 -9.28125 -14.390625l30.09375 -31.421875q7.53125 10.1875 15.484375 19.703125q7.96875 9.515625 18.8125 15.5q10.859375 5.96875 26.78125 5.96875q24.796875 0 38.953125 -16.59375q14.171875 -16.609375 14.171875 -40.078125l0 -166.87503l-56.65625 0l0 -44.265625l152.26562 0l0 44.265625l-47.796875 0l0 171.31253q0 25.234375 -11.734375 47.8125q-11.734375 22.5625 -34.3125 36.734375q-22.5625 14.15625 -54.890625 14.15625z" fill-rule="nonzero"/></g></svg>