<?xml version="1.0" standalone="no"?>
<!DOCTYPE svg PUBLIC "-//W3C//DTD SVG 20010904//EN"
 "http://www.w3.org/TR/2001/REC-SVG-20010904/DTD/svg10.dtd">
<svg version="1.0" xmlns="http://www.w3.org/2000/svg"
 width="700.000000pt" height="700.000000pt" viewBox="0 0 700.000000 700.000000"
 preserveAspectRatio="xMidYMid meet">
<metadata>
Created by potrace 1.11, written by Peter Selinger 2001-2013
</metadata>
<g transform="translate(0.000000,700.000000) scale(0.100000,-0.100000)"
fill="#000000" stroke="none">
<path d="M3200 6793 c-25 -2 -104 -12 -175 -23 -1350 -194 -2452 -1214 -2750
-2545 -103 -462 -103 -988 0 -1450 281 -1253 1289 -2248 2541 -2508 265 -55
337 -62 684 -62 347 0 424 7 680 61 1398 296 2450 1457 2605 2874 21 188 21
541 0 715 -91 774 -412 1442 -950 1980 -536 537 -1219 864 -1980 950 -119 14
-526 18 -655 8z m1180 -2358 l0 -165 -175 0 -174 0 -4 -687 c-3 -762 -1 -726
-71 -878 -104 -222 -305 -365 -558 -396 -302 -37 -562 83 -732 338 l-46 68 63
65 c35 36 83 86 107 113 24 26 48 47 54 47 6 0 28 -24 49 -54 63 -88 146 -164
216 -199 62 -30 71 -32 181 -32 105 0 120 2 171 28 72 35 132 100 172 185 l32
67 3 668 3 667 -206 0 -205 0 0 165 0 165 560 0 560 0 0 -165z"/>
</g>
</svg>
